<?xml version="1.0" encoding="UTF-8" standalone="no"?>
<!DOCTYPE svg PUBLIC "-//W3C//DTD SVG 1.1//EN"
 "http://www.w3.org/Graphics/SVG/1.1/DTD/svg11.dtd">
<!-- Generated by graphviz version 2.44.1 (20200629.0846)
 -->
<!-- Title: G Pages: 1 -->
<svg width="1279pt" height="1023pt"
 viewBox="0.00 0.00 1279.00 1023.00" xmlns="http://www.w3.org/2000/svg" xmlns:xlink="http://www.w3.org/1999/xlink">
<g id="graph0" class="graph" transform="scale(1 1) rotate(0) translate(4 1019)">
<title>G</title>
<polygon fill="white" stroke="transparent" points="-4,4 -4,-1019 1275,-1019 1275,4 -4,4"/>
<g id="clust1" class="cluster">
<title>cluster_pool</title>
<polygon fill="none" stroke="black" stroke-dasharray="5,2" points="852,-137 852,-248 1084,-248 1084,-137 852,-137"/>
<text text-anchor="middle" x="968" y="-232.8" font-family="BlinkMacSystemFont" font-size="14.00">Pool</text>
</g>
<!-- partition -->
<g id="node1" class="node">
<title>partition</title>
<path fill="none" stroke="black" d="M1040,-65.45C1040,-69.07 1007.73,-72 968,-72 928.27,-72 896,-69.07 896,-65.45 896,-65.45 896,-6.55 896,-6.55 896,-2.93 928.27,0 968,0 1007.73,0 1040,-2.93 1040,-6.55 1040,-6.55 1040,-65.45 1040,-65.45"/>
<path fill="none" stroke="black" d="M1040,-65.45C1040,-61.84 1007.73,-58.91 968,-58.91 928.27,-58.91 896,-61.84 896,-65.45"/>
<text text-anchor="middle" x="968" y="-32.3" font-family="BlinkMacSystemFont" font-size="14.00">Riak KV</text>
</g>
<!-- data -->
<g id="node2" class="node">
<title>data</title>
<path fill="none" stroke="black" d="M357,-65.45C357,-69.07 324.73,-72 285,-72 245.27,-72 213,-69.07 213,-65.45 213,-65.45 213,-6.55 213,-6.55 213,-2.93 245.27,0 285,0 324.73,0 357,-2.93 357,-6.55 357,-6.55 357,-65.45 357,-65.45"/>
<path fill="none" stroke="black" d="M357,-65.45C357,-61.84 324.73,-58.91 285,-58.91 245.27,-58.91 213,-61.84 213,-65.45"/>
<text text-anchor="middle" x="285" y="-32.3" font-family="BlinkMacSystemFont" font-size="14.00">Riak KV</text>
</g>
<!-- sup -->
<g id="node3" class="node">
<title>sup</title>
<polygon fill="none" stroke="black" points="695,-1015 479,-1015 479,-943 695,-943 695,-1015"/>
<text text-anchor="middle" x="587" y="-982.8" font-family="BlinkMacSystemFont" font-size="14.00">&lt;&lt;supervisor&gt;&gt;</text>
<text text-anchor="middle" x="587" y="-967.8" font-family="BlinkMacSystemFont" font-size="14.00">sup</text>
</g>
<!-- worker_sup -->
<g id="node4" class="node">
<title>worker_sup</title>
<polygon fill="none" stroke="black" points="497,-856 281,-856 281,-784 497,-784 497,-856"/>
<text text-anchor="middle" x="389" y="-823.8" font-family="BlinkMacSystemFont" font-size="14.00">&lt;&lt;supervisor&gt;&gt;</text>
<text text-anchor="middle" x="389" y="-808.8" font-family="BlinkMacSystemFont" font-size="14.00">partition_worker_sup</text>
</g>
<!-- sup&#45;&gt;worker_sup -->
<g id="edge1" class="edge">
<title>sup&#45;&gt;worker_sup</title>
<path fill="none" stroke="gray" stroke-dasharray="5,2" d="M542.56,-942.77C512.63,-919.03 473.02,-887.62 441.52,-862.65"/>
<polygon fill="gray" stroke="gray" points="443.3,-859.59 433.29,-856.12 438.95,-865.07 443.3,-859.59"/>
<text text-anchor="middle" x="526.5" y="-895.8" font-family="BlinkMacSystemFont" font-size="14.00">supervises</text>
</g>
<!-- partition_sup -->
<g id="node5" class="node">
<title>partition_sup</title>
<polygon fill="none" stroke="black" points="875,-856 659,-856 659,-784 875,-784 875,-856"/>
<text text-anchor="middle" x="767" y="-823.8" font-family="BlinkMacSystemFont" font-size="14.00">&lt;&lt;supervisor&gt;&gt;</text>
<text text-anchor="middle" x="767" y="-808.8" font-family="BlinkMacSystemFont" font-size="14.00">partition_store_sup</text>
</g>
<!-- sup&#45;&gt;partition_sup -->
<g id="edge2" class="edge">
<title>sup&#45;&gt;partition_sup</title>
<path fill="none" stroke="gray" stroke-dasharray="5,2" d="M627.4,-942.77C654.49,-919.13 690.31,-887.89 718.89,-862.97"/>
<polygon fill="gray" stroke="gray" points="721.5,-865.33 726.74,-856.12 716.9,-860.05 721.5,-865.33"/>
<text text-anchor="middle" x="715.5" y="-895.8" font-family="BlinkMacSystemFont" font-size="14.00">supervises</text>
</g>
<!-- worker -->
<g id="node8" class="node">
<title>worker</title>
<polygon fill="none" stroke="black" points="389,-697 173,-697 173,-625 389,-625 389,-697"/>
<text text-anchor="middle" x="281" y="-664.8" font-family="BlinkMacSystemFont" font-size="14.00">&lt;&lt;gen_server&gt;&gt;</text>
<text text-anchor="middle" x="281" y="-649.8" font-family="BlinkMacSystemFont" font-size="14.00">partition_worker_1</text>
</g>
<!-- worker_sup&#45;&gt;worker -->
<g id="edge3" class="edge">
<title>worker_sup&#45;&gt;worker</title>
<path fill="none" stroke="gray" stroke-dasharray="5,2" d="M364.76,-783.77C348.85,-760.64 327.93,-730.22 310.97,-705.57"/>
<polygon fill="gray" stroke="gray" points="313.71,-703.37 305.16,-697.12 307.94,-707.34 313.71,-703.37"/>
<text text-anchor="middle" x="371.5" y="-736.8" font-family="BlinkMacSystemFont" font-size="14.00">supervises</text>
</g>
<!-- store -->
<g id="node6" class="node">
<title>store</title>
<polygon fill="none" stroke="black" points="893,-697 677,-697 677,-625 893,-625 893,-697"/>
<text text-anchor="middle" x="785" y="-664.8" font-family="BlinkMacSystemFont" font-size="14.00">&lt;&lt;gen_server&gt;&gt;</text>
<text text-anchor="middle" x="785" y="-649.8" font-family="BlinkMacSystemFont" font-size="14.00">partition_store_1</text>
</g>
<!-- partition_sup&#45;&gt;store -->
<g id="edge4" class="edge">
<title>partition_sup&#45;&gt;store</title>
<path fill="none" stroke="gray" stroke-dasharray="5,2" d="M757.39,-783.68C754.45,-768.07 752.75,-749.54 756,-733 757.71,-724.27 760.51,-715.25 763.71,-706.7"/>
<polygon fill="gray" stroke="gray" points="767.01,-707.87 767.45,-697.28 760.5,-705.28 767.01,-707.87"/>
<text text-anchor="middle" x="788.5" y="-736.8" font-family="BlinkMacSystemFont" font-size="14.00">supervises</text>
</g>
<!-- store2 -->
<g id="node7" class="node">
<title>store2</title>
<polygon fill="none" stroke="black" points="1253,-697 1037,-697 1037,-625 1253,-625 1253,-697"/>
<text text-anchor="middle" x="1145" y="-664.8" font-family="BlinkMacSystemFont" font-size="14.00">&lt;&lt;gen_server&gt;&gt;</text>
<text text-anchor="middle" x="1145" y="-649.8" font-family="BlinkMacSystemFont" font-size="14.00">partition_store_2</text>
</g>
<!-- partition_sup&#45;&gt;store2 -->
<g id="edge5" class="edge">
<title>partition_sup&#45;&gt;store2</title>
<path fill="none" stroke="gray" stroke-dasharray="5,2" d="M851.36,-783.96C910.66,-759.33 990.02,-726.37 1051.28,-700.92"/>
<polygon fill="gray" stroke="gray" points="1052.68,-704.13 1060.57,-697.07 1049.99,-697.67 1052.68,-704.13"/>
<text text-anchor="middle" x="999.5" y="-736.8" font-family="BlinkMacSystemFont" font-size="14.00">supervises</text>
</g>
<!-- backend -->
<g id="node11" class="node">
<title>backend</title>
<polygon fill="#e5e5e5" stroke="black" points="960,-538 744,-538 744,-466 960,-466 960,-538"/>
<text text-anchor="middle" x="852" y="-505.8" font-family="BlinkMacSystemFont" font-size="14.00">&lt;&lt;module&gt;&gt;</text>
<text text-anchor="middle" x="852" y="-490.8" font-family="BlinkMacSystemFont" font-size="14.00">store_backend</text>
</g>
<!-- store&#45;&gt;backend -->
<g id="edge16" class="edge">
<title>store&#45;&gt;backend</title>
<path fill="none" stroke="red" d="M773.39,-614.79C771.98,-601.24 772.62,-586.63 778,-574 783.73,-560.57 793.38,-548.46 803.85,-538.2"/>
<polygon fill="red" stroke="red" points="769.95,-615.48 774.82,-624.89 776.89,-614.5 769.95,-615.48"/>
<text text-anchor="middle" x="786.5" y="-577.8" font-family="BlinkMacSystemFont" font-size="14.00" fill="red">list</text>
</g>
<!-- store&#45;&gt;backend -->
<g id="edge17" class="edge">
<title>store&#45;&gt;backend</title>
<path fill="none" stroke="blue" d="M800.04,-624.77C809.78,-601.94 822.55,-572.01 832.99,-547.54"/>
<polygon fill="blue" stroke="blue" points="836.31,-548.69 837.01,-538.12 829.87,-545.94 836.31,-548.69"/>
<text text-anchor="middle" x="843" y="-577.8" font-family="BlinkMacSystemFont" font-size="14.00" fill="blue">append</text>
</g>
<!-- store&#45;&gt;backend -->
<g id="edge18" class="edge">
<title>store&#45;&gt;backend</title>
<path fill="none" stroke="red" d="M719.54,-624.85C701.28,-610.29 689.25,-592.5 701,-574 709.61,-560.43 721.59,-549.41 735.06,-540.47"/>
<polygon fill="red" stroke="red" points="736.97,-543.4 743.62,-535.16 733.28,-537.45 736.97,-543.4"/>
<text text-anchor="middle" x="719.5" y="-577.8" font-family="BlinkMacSystemFont" font-size="14.00" fill="red">delete</text>
</g>
<!-- store2&#45;&gt;backend -->
<g id="edge21" class="edge">
<title>store2&#45;&gt;backend</title>
<path fill="none" stroke="gray" d="M1079.61,-624.96C1034.21,-600.64 973.65,-568.18 926.4,-542.87"/>
<polygon fill="gray" stroke="gray" points="927.91,-539.7 917.44,-538.07 924.6,-545.87 927.91,-539.7"/>
<text text-anchor="middle" x="1030" y="-577.8" font-family="BlinkMacSystemFont" font-size="14.00" fill="gray">append</text>
</g>
<!-- worker&#45;&gt;store -->
<g id="edge10" class="edge">
<title>worker&#45;&gt;store</title>
<path fill="none" stroke="red" d="M399.1,-650.51C438.9,-647.44 483.59,-644.51 524.5,-643 574.56,-641.15 629.94,-644.25 676.72,-648.38"/>
<polygon fill="red" stroke="red" points="398.79,-647.02 389.09,-651.29 399.33,-654 398.79,-647.02"/>
<text text-anchor="middle" x="533" y="-646.8" font-family="BlinkMacSystemFont" font-size="14.00" fill="red">list</text>
</g>
<!-- worker&#45;&gt;store -->
<g id="edge11" class="edge">
<title>worker&#45;&gt;store</title>
<path fill="none" stroke="red" d="M389.12,-661C470.7,-661 582.52,-661 666.52,-661"/>
<polygon fill="red" stroke="red" points="666.62,-664.5 676.62,-661 666.62,-657.5 666.62,-664.5"/>
<text text-anchor="middle" x="533" y="-667.8" font-family="BlinkMacSystemFont" font-size="14.00" fill="red">delete</text>
</g>
<!-- worker&#45;&gt;worker -->
<g id="edge9" class="edge">
<title>worker:nw&#45;&gt;worker:w</title>
<path fill="none" stroke="red" d="M173,-697C125,-716.5 29,-716.5 29,-679 29,-643.84 113.38,-641.65 163.47,-657.58"/>
<polygon fill="red" stroke="red" points="162.41,-660.91 173,-661 164.77,-654.32 162.41,-660.91"/>
<text text-anchor="middle" x="14.5" y="-657.3" font-family="BlinkMacSystemFont" font-size="14.00" fill="red">work</text>
</g>
<!-- conn -->
<g id="node9" class="node">
<title>conn</title>
<polygon fill="none" stroke="black" points="393,-538 177,-538 177,-466 393,-466 393,-538"/>
<text text-anchor="middle" x="285" y="-505.8" font-family="BlinkMacSystemFont" font-size="14.00">&lt;&lt;gen_server&gt;&gt;</text>
<text text-anchor="middle" x="285" y="-490.8" font-family="BlinkMacSystemFont" font-size="14.00">riakc_pb_socket</text>
</g>
<!-- worker&#45;&gt;conn -->
<g id="edge6" class="edge">
<title>worker&#45;&gt;conn</title>
<path fill="none" stroke="gray" stroke-dasharray="5,2" d="M191.44,-624.95C171.23,-611.46 158.66,-594.33 170,-574 176.42,-562.49 185.56,-552.61 195.92,-544.2"/>
<polygon fill="gray" stroke="gray" points="198.19,-546.88 204.06,-538.06 193.97,-541.29 198.19,-546.88"/>
<text text-anchor="middle" x="181" y="-577.8" font-family="BlinkMacSystemFont" font-size="14.00">has</text>
</g>
<!-- worker&#45;&gt;conn -->
<g id="edge12" class="edge">
<title>worker&#45;&gt;conn</title>
<path fill="none" stroke="red" d="M281.9,-624.77C282.47,-602.14 283.23,-572.54 283.85,-548.19"/>
<polygon fill="red" stroke="red" points="287.35,-548.2 284.11,-538.12 280.35,-548.02 287.35,-548.2"/>
<text text-anchor="middle" x="317.5" y="-577.8" font-family="BlinkMacSystemFont" font-size="14.00" fill="red">put | delete</text>
</g>
<!-- conn&#45;&gt;data -->
<g id="edge13" class="edge">
<title>conn&#45;&gt;data</title>
<path fill="none" stroke="red" d="M251.46,-456.16C223.14,-364.08 224.22,-155.4 254.69,-72.2"/>
<polygon fill="red" stroke="red" points="248.18,-457.37 254.67,-465.74 254.81,-455.15 248.18,-457.37"/>
</g>
<!-- conn&#45;&gt;data -->
<g id="edge14" class="edge">
<title>conn&#45;&gt;data</title>
<path fill="none" stroke="red" d="M315.33,-465.74C345.79,-382.49 346.85,-173.81 318.52,-81.79"/>
<polygon fill="red" stroke="red" points="321.81,-80.57 315.31,-72.2 315.17,-82.8 321.81,-80.57"/>
</g>
<!-- pool_conn -->
<g id="node10" class="node">
<title>pool_conn</title>
<polygon fill="none" stroke="black" points="1076,-217 860,-217 860,-145 1076,-145 1076,-217"/>
<text text-anchor="middle" x="968" y="-184.8" font-family="BlinkMacSystemFont" font-size="14.00">&lt;&lt;gen_server&gt;&gt;</text>
<text text-anchor="middle" x="968" y="-169.8" font-family="BlinkMacSystemFont" font-size="14.00">riakc_pb_socket</text>
</g>
<!-- pool_conn&#45;&gt;partition -->
<g id="edge19" class="edge">
<title>pool_conn&#45;&gt;partition</title>
<path fill="none" stroke="black" d="M917.49,-135.17C911.86,-114.59 913.04,-90.58 921.04,-71.45"/>
<polygon fill="black" stroke="black" points="914.17,-136.29 920.67,-144.65 920.81,-134.06 914.17,-136.29"/>
</g>
<!-- pool_conn&#45;&gt;partition -->
<g id="edge20" class="edge">
<title>pool_conn&#45;&gt;partition</title>
<path fill="none" stroke="black" d="M1015.33,-144.65C1023.08,-125.46 1024.08,-101.55 1018.32,-81.15"/>
<polygon fill="black" stroke="black" points="1021.54,-79.75 1014.96,-71.45 1014.93,-82.04 1021.54,-79.75"/>
</g>
<!-- backend_riak -->
<g id="node12" class="node">
<title>backend_riak</title>
<polygon fill="#e5e5e5" stroke="black" points="1018,-379 802,-379 802,-307 1018,-307 1018,-379"/>
<text text-anchor="middle" x="910" y="-346.8" font-family="BlinkMacSystemFont" font-size="14.00">&lt;&lt;module&gt;&gt;</text>
<text text-anchor="middle" x="910" y="-331.8" font-family="BlinkMacSystemFont" font-size="14.00">store_backend_riak</text>
</g>
<!-- backend&#45;&gt;backend_riak -->
<g id="edge7" class="edge">
<title>backend&#45;&gt;backend_riak</title>
<path fill="none" stroke="gray" stroke-dasharray="5,2" d="M865.02,-465.77C873.45,-442.94 884.5,-413.01 893.54,-388.54"/>
<polygon fill="gray" stroke="gray" points="896.84,-389.71 897.03,-379.12 890.28,-387.28 896.84,-389.71"/>
<text text-anchor="middle" x="906.5" y="-418.8" font-family="BlinkMacSystemFont" font-size="14.00">callback</text>
</g>
<!-- backend&#45;&gt;backend_riak -->
<g id="edge22" class="edge">
<title>backend&#45;&gt;backend_riak</title>
<path fill="none" stroke="red" d="M941.08,-459.8C951.44,-451.39 960.58,-441.51 967,-430 976.6,-412.79 967.42,-394.49 953.84,-379.22"/>
<polygon fill="red" stroke="red" points="938.81,-457.12 932.94,-465.94 943.03,-462.71 938.81,-457.12"/>
<text text-anchor="middle" x="1011" y="-418.8" font-family="BlinkMacSystemFont" font-size="14.00" fill="red">list_keys | get</text>
</g>
<!-- backend&#45;&gt;backend_riak -->
<g id="edge23" class="edge">
<title>backend&#45;&gt;backend_riak</title>
<path fill="none" stroke="blue" d="M743.92,-491.76C675.29,-481.47 605.38,-459.9 640,-415 659.21,-390.09 728.36,-372.18 791.86,-360.59"/>
<polygon fill="blue" stroke="blue" points="792.76,-363.98 801.99,-358.78 791.53,-357.09 792.76,-363.98"/>
<text text-anchor="middle" x="649.5" y="-418.8" font-family="BlinkMacSystemFont" font-size="14.00" fill="blue">put</text>
</g>
<!-- backend&#45;&gt;backend_riak -->
<g id="edge24" class="edge">
<title>backend&#45;&gt;backend_riak</title>
<path fill="none" stroke="red" d="M816.3,-465.9C804.84,-450.33 797.14,-431.77 806,-415 811.92,-403.79 820.5,-394.01 830.22,-385.6"/>
<polygon fill="red" stroke="red" points="832.65,-388.14 838.24,-379.14 828.25,-382.69 832.65,-388.14"/>
<text text-anchor="middle" x="824.5" y="-418.8" font-family="BlinkMacSystemFont" font-size="14.00" fill="red">delete</text>
</g>
<!-- backend_riak&#45;&gt;pool_conn -->
<g id="edge8" class="edge">
<title>backend_riak&#45;&gt;pool_conn</title>
<path fill="none" stroke="gray" stroke-dasharray="5,2" d="M922.73,-306.89C931.3,-283.23 942.68,-251.84 951.89,-226.44"/>
<polygon fill="gray" stroke="gray" points="955.18,-227.62 955.3,-217.03 948.6,-225.24 955.18,-227.62"/>
<text text-anchor="middle" x="964.5" y="-259.8" font-family="BlinkMacSystemFont" font-size="14.00">borrows</text>
</g>
<!-- backend_riak&#45;&gt;pool_conn -->
<g id="edge25" class="edge">
<title>backend_riak&#45;&gt;pool_conn</title>
<path fill="none" stroke="red" d="M999.08,-300.8C1009.44,-292.39 1018.58,-282.51 1025,-271 1035.1,-252.89 1025.18,-233.43 1010.94,-217.34"/>
<polygon fill="red" stroke="red" points="996.81,-298.12 990.94,-306.94 1001.03,-303.71 996.81,-298.12"/>
<text text-anchor="middle" x="1070" y="-259.8" font-family="BlinkMacSystemFont" font-size="14.00" fill="red">list_keys | get</text>
</g>
<!-- backend_riak&#45;&gt;pool_conn -->
<g id="edge26" class="edge">
<title>backend_riak&#45;&gt;pool_conn</title>
<path fill="none" stroke="blue" d="M801.69,-332.81C733.25,-322.55 663.67,-301 698,-256 717.13,-230.92 786.28,-212.25 849.8,-199.93"/>
<polygon fill="blue" stroke="blue" points="850.77,-203.31 859.94,-198.01 849.46,-196.44 850.77,-203.31"/>
<text text-anchor="middle" x="707.5" y="-259.8" font-family="BlinkMacSystemFont" font-size="14.00" fill="blue">put</text>
</g>
<!-- backend_riak&#45;&gt;pool_conn -->
<g id="edge27" class="edge">
<title>backend_riak&#45;&gt;pool_conn</title>
<path fill="none" stroke="red" d="M874.46,-306.98C863.03,-291.42 855.31,-272.85 864,-256 870.42,-243.56 880,-232.75 890.79,-223.53"/>
<polygon fill="red" stroke="red" points="893.22,-226.07 898.84,-217.1 888.84,-220.61 893.22,-226.07"/>
<text text-anchor="middle" x="882.5" y="-259.8" font-family="BlinkMacSystemFont" font-size="14.00" fill="red">delete</text>
</g>
<!-- reliable -->
<g id="node13" class="node">
<title>reliable</title>
<polygon fill="#e5e5e5" stroke="black" points="1271,-1015 1055,-1015 1055,-943 1271,-943 1271,-1015"/>
<text text-anchor="middle" x="1163" y="-982.8" font-family="BlinkMacSystemFont" font-size="14.00">&lt;&lt;module&gt;&gt;</text>
<text text-anchor="middle" x="1163" y="-967.8" font-family="BlinkMacSystemFont" font-size="14.00">reliable</text>
</g>
<!-- reliable&#45;&gt;store -->
<g id="edge15" class="edge">
<title>reliable&#45;&gt;store</title>
<path fill="none" stroke="blue" d="M1159.44,-942.64C1152.12,-889.16 1130.41,-788.11 1068,-733 1054.99,-721.51 974.8,-701.97 903.09,-686.3"/>
<polygon fill="blue" stroke="blue" points="903.55,-682.82 893.03,-684.11 902.06,-689.66 903.55,-682.82"/>
<text text-anchor="middle" x="1166.5" y="-816.3" font-family="BlinkMacSystemFont" font-size="14.00" fill="blue">schedule</text>
</g>
</g>
</svg>
