<?xml version="1.0" encoding="UTF-8" standalone="no"?>
<!DOCTYPE svg PUBLIC "-//W3C//DTD SVG 1.1//EN"
 "http://www.w3.org/Graphics/SVG/1.1/DTD/svg11.dtd">
<!-- Generated by graphviz version 2.44.1 (20200629.0846)
 -->
<!-- Title: G Pages: 1 -->
<svg width="1385pt" height="1046pt"
 viewBox="0.00 0.00 1385.00 1046.00" xmlns="http://www.w3.org/2000/svg" xmlns:xlink="http://www.w3.org/1999/xlink">
<g id="graph0" class="graph" transform="scale(1 1) rotate(0) translate(4 1042)">
<title>G</title>
<polygon fill="white" stroke="transparent" points="-4,4 -4,-1042 1381,-1042 1381,4 -4,4"/>
<g id="clust1" class="cluster">
<title>cluster_pool</title>
<polygon fill="none" stroke="black" stroke-dasharray="5,2" points="844,-137 844,-271 1076,-271 1076,-137 844,-137"/>
<text text-anchor="middle" x="960" y="-255.8" font-family="BlinkMacSystemFont" font-size="14.00">Pool</text>
</g>
<!-- partition -->
<g id="node1" class="node">
<title>partition</title>
<path fill="none" stroke="black" d="M1032,-65.45C1032,-69.07 999.73,-72 960,-72 920.27,-72 888,-69.07 888,-65.45 888,-65.45 888,-6.55 888,-6.55 888,-2.93 920.27,0 960,0 999.73,0 1032,-2.93 1032,-6.55 1032,-6.55 1032,-65.45 1032,-65.45"/>
<path fill="none" stroke="black" d="M1032,-65.45C1032,-61.84 999.73,-58.91 960,-58.91 920.27,-58.91 888,-61.84 888,-65.45"/>
<text text-anchor="middle" x="960" y="-32.3" font-family="BlinkMacSystemFont" font-size="14.00">/instance_1/partition_1/</text>
</g>
<!-- data -->
<g id="node2" class="node">
<title>data</title>
<path fill="none" stroke="black" d="M405,-395.45C405,-399.07 372.73,-402 333,-402 293.27,-402 261,-399.07 261,-395.45 261,-395.45 261,-336.55 261,-336.55 261,-332.93 293.27,-330 333,-330 372.73,-330 405,-332.93 405,-336.55 405,-336.55 405,-395.45 405,-395.45"/>
<path fill="none" stroke="black" d="M405,-395.45C405,-391.84 372.73,-388.91 333,-388.91 293.27,-388.91 261,-391.84 261,-395.45"/>
<text text-anchor="middle" x="333" y="-362.3" font-family="BlinkMacSystemFont" font-size="14.00">Riak KV</text>
</g>
<!-- sup -->
<g id="node3" class="node">
<title>sup</title>
<polygon fill="none" stroke="black" points="630,-1038 414,-1038 414,-966 630,-966 630,-1038"/>
<text text-anchor="middle" x="522" y="-1005.8" font-family="BlinkMacSystemFont" font-size="14.00">&lt;&lt;supervisor&gt;&gt;</text>
<text text-anchor="middle" x="522" y="-990.8" font-family="BlinkMacSystemFont" font-size="14.00">sup</text>
</g>
<!-- worker_sup -->
<g id="node4" class="node">
<title>worker_sup</title>
<polygon fill="none" stroke="black" points="435,-879 219,-879 219,-807 435,-807 435,-879"/>
<text text-anchor="middle" x="327" y="-846.8" font-family="BlinkMacSystemFont" font-size="14.00">&lt;&lt;supervisor&gt;&gt;</text>
<text text-anchor="middle" x="327" y="-831.8" font-family="BlinkMacSystemFont" font-size="14.00">partition_worker_sup</text>
</g>
<!-- sup&#45;&gt;worker_sup -->
<g id="edge1" class="edge">
<title>sup&#45;&gt;worker_sup</title>
<path fill="none" stroke="gray" stroke-dasharray="5,2" d="M478.24,-965.77C448.76,-942.03 409.74,-910.62 378.73,-885.65"/>
<polygon fill="gray" stroke="gray" points="380.6,-882.66 370.62,-879.12 376.21,-888.11 380.6,-882.66"/>
<text text-anchor="middle" x="463.5" y="-918.8" font-family="BlinkMacSystemFont" font-size="14.00">supervises</text>
</g>
<!-- partition_sup -->
<g id="node5" class="node">
<title>partition_sup</title>
<polygon fill="none" stroke="black" points="810,-879 594,-879 594,-807 810,-807 810,-879"/>
<text text-anchor="middle" x="702" y="-846.8" font-family="BlinkMacSystemFont" font-size="14.00">&lt;&lt;supervisor&gt;&gt;</text>
<text text-anchor="middle" x="702" y="-831.8" font-family="BlinkMacSystemFont" font-size="14.00">partition_store_sup</text>
</g>
<!-- sup&#45;&gt;partition_sup -->
<g id="edge2" class="edge">
<title>sup&#45;&gt;partition_sup</title>
<path fill="none" stroke="gray" stroke-dasharray="5,2" d="M562.4,-965.77C589.49,-942.13 625.31,-910.89 653.89,-885.97"/>
<polygon fill="gray" stroke="gray" points="656.5,-888.33 661.74,-879.12 651.9,-883.05 656.5,-888.33"/>
<text text-anchor="middle" x="650.5" y="-918.8" font-family="BlinkMacSystemFont" font-size="14.00">supervises</text>
</g>
<!-- worker -->
<g id="node8" class="node">
<title>worker</title>
<polygon fill="none" stroke="black" points="389,-720 173,-720 173,-648 389,-648 389,-720"/>
<text text-anchor="middle" x="281" y="-687.8" font-family="BlinkMacSystemFont" font-size="14.00">&lt;&lt;gen_server&gt;&gt;</text>
<text text-anchor="middle" x="281" y="-672.8" font-family="BlinkMacSystemFont" font-size="14.00">partition_worker_1</text>
</g>
<!-- worker_sup&#45;&gt;worker -->
<g id="edge3" class="edge">
<title>worker_sup&#45;&gt;worker</title>
<path fill="none" stroke="gray" stroke-dasharray="5,2" d="M316.68,-806.77C310.02,-784.04 301.3,-754.28 294.15,-729.87"/>
<polygon fill="gray" stroke="gray" points="297.46,-728.73 291.29,-720.12 290.74,-730.7 297.46,-728.73"/>
<text text-anchor="middle" x="338.5" y="-759.8" font-family="BlinkMacSystemFont" font-size="14.00">supervises</text>
</g>
<!-- store -->
<g id="node6" class="node">
<title>store</title>
<polygon fill="none" stroke="black" points="1109,-720 893,-720 893,-648 1109,-648 1109,-720"/>
<text text-anchor="middle" x="1001" y="-687.8" font-family="BlinkMacSystemFont" font-size="14.00">&lt;&lt;gen_server&gt;&gt;</text>
<text text-anchor="middle" x="1001" y="-672.8" font-family="BlinkMacSystemFont" font-size="14.00">partition_store_1</text>
</g>
<!-- partition_sup&#45;&gt;store -->
<g id="edge4" class="edge">
<title>partition_sup&#45;&gt;store</title>
<path fill="none" stroke="gray" stroke-dasharray="5,2" d="M768.73,-806.96C815.05,-782.64 876.86,-750.18 925.07,-724.87"/>
<polygon fill="gray" stroke="gray" points="926.99,-727.81 934.22,-720.07 923.74,-721.62 926.99,-727.81"/>
<text text-anchor="middle" x="892.5" y="-759.8" font-family="BlinkMacSystemFont" font-size="14.00">supervises</text>
</g>
<!-- store2 -->
<g id="node7" class="node">
<title>store2</title>
<polygon fill="none" stroke="black" points="749,-720 533,-720 533,-648 749,-648 749,-720"/>
<text text-anchor="middle" x="641" y="-687.8" font-family="BlinkMacSystemFont" font-size="14.00">&lt;&lt;gen_server&gt;&gt;</text>
<text text-anchor="middle" x="641" y="-672.8" font-family="BlinkMacSystemFont" font-size="14.00">partition_store_2</text>
</g>
<!-- partition_sup&#45;&gt;store2 -->
<g id="edge5" class="edge">
<title>partition_sup&#45;&gt;store2</title>
<path fill="none" stroke="gray" stroke-dasharray="5,2" d="M688.31,-806.77C679.44,-783.94 667.81,-754.01 658.31,-729.54"/>
<polygon fill="gray" stroke="gray" points="661.53,-728.17 654.64,-720.12 655,-730.71 661.53,-728.17"/>
<text text-anchor="middle" x="706.5" y="-759.8" font-family="BlinkMacSystemFont" font-size="14.00">supervises</text>
</g>
<!-- backend -->
<g id="node11" class="node">
<title>backend</title>
<polygon fill="#e5e5e5" stroke="black" points="1011,-561 795,-561 795,-489 1011,-489 1011,-561"/>
<text text-anchor="middle" x="903" y="-528.8" font-family="BlinkMacSystemFont" font-size="14.00">&lt;&lt;module&gt;&gt;</text>
<text text-anchor="middle" x="903" y="-513.8" font-family="BlinkMacSystemFont" font-size="14.00">store_backend</text>
</g>
<!-- store&#45;&gt;backend -->
<g id="edge16" class="edge">
<title>store&#45;&gt;backend</title>
<path fill="none" stroke="red" d="M883.52,-656.29C862,-645.99 842.2,-631.73 829,-612 817.17,-594.32 828.49,-576.25 845.54,-561.27"/>
<polygon fill="red" stroke="red" points="882.28,-659.56 892.84,-660.46 885.14,-653.18 882.28,-659.56"/>
<text text-anchor="middle" x="837.5" y="-600.8" font-family="BlinkMacSystemFont" font-size="14.00" fill="red">list</text>
</g>
<!-- store&#45;&gt;backend -->
<g id="edge17" class="edge">
<title>store&#45;&gt;backend</title>
<path fill="none" stroke="blue" d="M979.01,-647.77C964.63,-624.74 945.75,-594.48 930.4,-569.9"/>
<polygon fill="blue" stroke="blue" points="933.18,-567.75 924.92,-561.12 927.25,-571.45 933.18,-567.75"/>
<text text-anchor="middle" x="977" y="-600.8" font-family="BlinkMacSystemFont" font-size="14.00" fill="blue">append</text>
</g>
<!-- store&#45;&gt;backend -->
<g id="edge18" class="edge">
<title>store&#45;&gt;backend</title>
<path fill="none" stroke="red" d="M1029.83,-647.94C1039.44,-631.87 1045.53,-612.9 1036,-597 1028.9,-585.17 1019.09,-575.2 1007.98,-566.83"/>
<polygon fill="red" stroke="red" points="1009.88,-563.88 999.69,-561.01 1005.87,-569.62 1009.88,-563.88"/>
<text text-anchor="middle" x="1058.5" y="-600.8" font-family="BlinkMacSystemFont" font-size="14.00" fill="red">delete</text>
</g>
<!-- store2&#45;&gt;backend -->
<g id="edge22" class="edge">
<title>store2&#45;&gt;backend</title>
<path fill="none" stroke="blue" d="M677.77,-647.61C696.35,-630.9 719.83,-611.5 743,-597 761.54,-585.4 782.31,-574.71 802.58,-565.33"/>
<polygon fill="blue" stroke="blue" points="804.19,-568.44 811.85,-561.12 801.29,-562.07 804.19,-568.44"/>
<text text-anchor="middle" x="766" y="-600.8" font-family="BlinkMacSystemFont" font-size="14.00" fill="blue">append</text>
</g>
<!-- worker&#45;&gt;store -->
<g id="edge10" class="edge">
<title>worker&#45;&gt;store</title>
<path fill="none" stroke="red" d="M388.84,-723.1C432.77,-737.07 484.45,-751.08 532.5,-758 656.18,-775.82 797.85,-746.51 892.73,-719.68"/>
<polygon fill="red" stroke="red" points="389.89,-719.76 379.29,-720.02 387.74,-726.42 389.89,-719.76"/>
<text text-anchor="middle" x="541" y="-759.8" font-family="BlinkMacSystemFont" font-size="14.00" fill="red">list</text>
</g>
<!-- worker&#45;&gt;store -->
<g id="edge11" class="edge">
<title>worker&#45;&gt;store</title>
<path fill="none" stroke="red" d="M379.29,-720.02C425.17,-734.98 480.92,-750.57 532.5,-758 651.95,-775.21 788.19,-748.46 882.84,-722.44"/>
<polygon fill="red" stroke="red" points="884.04,-725.74 892.73,-719.68 882.16,-719 884.04,-725.74"/>
<text text-anchor="middle" x="541" y="-759.8" font-family="BlinkMacSystemFont" font-size="14.00" fill="red">delete</text>
</g>
<!-- worker&#45;&gt;worker -->
<g id="edge9" class="edge">
<title>worker:nw&#45;&gt;worker:w</title>
<path fill="none" stroke="red" d="M173,-720C125,-739.5 29,-739.5 29,-702 29,-666.84 113.38,-664.65 163.47,-680.58"/>
<polygon fill="red" stroke="red" points="162.41,-683.91 173,-684 164.77,-677.32 162.41,-683.91"/>
<text text-anchor="middle" x="14.5" y="-680.3" font-family="BlinkMacSystemFont" font-size="14.00" fill="red">work</text>
</g>
<!-- conn -->
<g id="node9" class="node">
<title>conn</title>
<polygon fill="none" stroke="black" points="441,-561 225,-561 225,-489 441,-489 441,-561"/>
<text text-anchor="middle" x="333" y="-528.8" font-family="BlinkMacSystemFont" font-size="14.00">&lt;&lt;gen_server&gt;&gt;</text>
<text text-anchor="middle" x="333" y="-513.8" font-family="BlinkMacSystemFont" font-size="14.00">riakc_pb_socket</text>
</g>
<!-- worker&#45;&gt;conn -->
<g id="edge6" class="edge">
<title>worker&#45;&gt;conn</title>
<path fill="none" stroke="gray" stroke-dasharray="5,2" d="M231.71,-647.59C217.03,-632.58 207.17,-614.53 217,-597 223.44,-585.51 232.58,-575.66 242.94,-567.27"/>
<polygon fill="gray" stroke="gray" points="245.19,-569.96 251.07,-561.14 240.98,-564.36 245.19,-569.96"/>
<text text-anchor="middle" x="228" y="-600.8" font-family="BlinkMacSystemFont" font-size="14.00">has</text>
</g>
<!-- worker&#45;&gt;conn -->
<g id="edge12" class="edge">
<title>worker&#45;&gt;conn</title>
<path fill="none" stroke="red" d="M292.67,-647.77C300.2,-625.04 310.05,-595.28 318.14,-570.87"/>
<polygon fill="red" stroke="red" points="321.55,-571.71 321.37,-561.12 314.9,-569.51 321.55,-571.71"/>
<text text-anchor="middle" x="342.5" y="-600.8" font-family="BlinkMacSystemFont" font-size="14.00" fill="red">put | delete</text>
</g>
<!-- conn&#45;&gt;data -->
<g id="edge13" class="edge">
<title>conn&#45;&gt;data</title>
<path fill="none" stroke="red" d="M283.71,-479.26C276.39,-454.59 277.6,-424.42 287.35,-401.58"/>
<polygon fill="red" stroke="red" points="280.44,-480.51 287.08,-488.77 287.04,-478.17 280.44,-480.51"/>
</g>
<!-- conn&#45;&gt;data -->
<g id="edge14" class="edge">
<title>conn&#45;&gt;data</title>
<path fill="none" stroke="red" d="M378.92,-488.77C388.51,-465.78 389.56,-435.6 382.08,-411.03"/>
<polygon fill="red" stroke="red" points="385.35,-409.78 378.65,-401.58 378.77,-412.17 385.35,-409.78"/>
</g>
<!-- pool_conn -->
<g id="node10" class="node">
<title>pool_conn</title>
<polygon fill="none" stroke="black" points="1068,-217 852,-217 852,-145 1068,-145 1068,-217"/>
<text text-anchor="middle" x="960" y="-184.8" font-family="BlinkMacSystemFont" font-size="14.00">&lt;&lt;gen_server&gt;&gt;</text>
<text text-anchor="middle" x="960" y="-169.8" font-family="BlinkMacSystemFont" font-size="14.00">riakc_pb_socket</text>
</g>
<!-- pool_conn&#45;&gt;partition -->
<g id="edge19" class="edge">
<title>pool_conn&#45;&gt;partition</title>
<path fill="none" stroke="black" d="M909.49,-135.17C903.86,-114.59 905.04,-90.58 913.04,-71.45"/>
<polygon fill="black" stroke="black" points="906.17,-136.29 912.67,-144.65 912.81,-134.06 906.17,-136.29"/>
</g>
<!-- pool_conn&#45;&gt;partition -->
<g id="edge20" class="edge">
<title>pool_conn&#45;&gt;partition</title>
<path fill="none" stroke="black" d="M1007.33,-144.65C1015.08,-125.46 1016.08,-101.55 1010.32,-81.15"/>
<polygon fill="black" stroke="black" points="1013.54,-79.75 1006.96,-71.45 1006.93,-82.04 1013.54,-79.75"/>
</g>
<!-- backend_riak -->
<g id="node12" class="node">
<title>backend_riak</title>
<polygon fill="#e5e5e5" stroke="black" points="1068,-402 852,-402 852,-330 1068,-330 1068,-402"/>
<text text-anchor="middle" x="960" y="-369.8" font-family="BlinkMacSystemFont" font-size="14.00">&lt;&lt;module&gt;&gt;</text>
<text text-anchor="middle" x="960" y="-354.8" font-family="BlinkMacSystemFont" font-size="14.00">store_backend_riak</text>
</g>
<!-- backend&#45;&gt;backend_riak -->
<g id="edge7" class="edge">
<title>backend&#45;&gt;backend_riak</title>
<path fill="none" stroke="gray" stroke-dasharray="5,2" d="M915.79,-488.77C924.08,-465.94 934.94,-436.01 943.83,-411.54"/>
<polygon fill="gray" stroke="gray" points="947.13,-412.71 947.25,-402.12 940.55,-410.32 947.13,-412.71"/>
<text text-anchor="middle" x="957.5" y="-441.8" font-family="BlinkMacSystemFont" font-size="14.00">callback</text>
</g>
<!-- backend&#45;&gt;backend_riak -->
<g id="edge23" class="edge">
<title>backend&#45;&gt;backend_riak</title>
<path fill="none" stroke="red" d="M992.08,-482.8C1002.44,-474.39 1011.58,-464.51 1018,-453 1027.65,-435.7 1018.3,-417.39 1004.49,-402.13"/>
<polygon fill="red" stroke="red" points="989.81,-480.12 983.94,-488.94 994.03,-485.71 989.81,-480.12"/>
<text text-anchor="middle" x="1062" y="-441.8" font-family="BlinkMacSystemFont" font-size="14.00" fill="red">list_keys | get</text>
</g>
<!-- backend&#45;&gt;backend_riak -->
<g id="edge24" class="edge">
<title>backend&#45;&gt;backend_riak</title>
<path fill="none" stroke="blue" d="M794.78,-514.92C725.72,-504.7 655.18,-483.16 690,-438 709.21,-413.09 778.36,-395.18 841.86,-383.59"/>
<polygon fill="blue" stroke="blue" points="842.76,-386.98 851.99,-381.78 841.53,-380.09 842.76,-386.98"/>
<text text-anchor="middle" x="699.5" y="-441.8" font-family="BlinkMacSystemFont" font-size="14.00" fill="blue">put</text>
</g>
<!-- backend&#45;&gt;backend_riak -->
<g id="edge25" class="edge">
<title>backend&#45;&gt;backend_riak</title>
<path fill="none" stroke="red" d="M866.67,-488.97C854.98,-473.42 847.1,-454.85 856,-438 861.92,-426.79 870.5,-417.01 880.22,-408.6"/>
<polygon fill="red" stroke="red" points="882.65,-411.14 888.24,-402.14 878.25,-405.69 882.65,-411.14"/>
<text text-anchor="middle" x="874.5" y="-441.8" font-family="BlinkMacSystemFont" font-size="14.00" fill="red">delete</text>
</g>
<!-- backend_riak&#45;&gt;pool_conn -->
<g id="edge8" class="edge">
<title>backend_riak&#45;&gt;pool_conn</title>
<path fill="none" stroke="gray" stroke-dasharray="5,2" d="M851.62,-357.29C762.2,-348.4 645.42,-330.11 616,-294 549.49,-212.36 717.65,-189.62 841.62,-183.64"/>
<polygon fill="gray" stroke="gray" points="842.14,-187.12 851.97,-183.18 841.82,-180.13 842.14,-187.12"/>
<text text-anchor="middle" x="640.5" y="-282.8" font-family="BlinkMacSystemFont" font-size="14.00">borrows</text>
</g>
<!-- backend_riak&#45;&gt;pool_conn -->
<g id="edge26" class="edge">
<title>backend_riak&#45;&gt;pool_conn</title>
<path fill="none" stroke="red" d="M843.25,-324.42C831.72,-316.05 821.52,-306.02 814,-294 794.17,-262.31 822.97,-236.2 860.08,-217.18"/>
<polygon fill="red" stroke="red" points="841.62,-327.54 851.87,-330.23 845.53,-321.74 841.62,-327.54"/>
<text text-anchor="middle" x="855" y="-282.8" font-family="BlinkMacSystemFont" font-size="14.00" fill="red">list_keys | get</text>
</g>
<!-- backend_riak&#45;&gt;pool_conn -->
<g id="edge27" class="edge">
<title>backend_riak&#45;&gt;pool_conn</title>
<path fill="none" stroke="blue" d="M960,-329.72C960,-300.6 960,-259.09 960,-227.48"/>
<polygon fill="blue" stroke="blue" points="963.5,-227.18 960,-217.18 956.5,-227.18 963.5,-227.18"/>
<text text-anchor="middle" x="969.5" y="-282.8" font-family="BlinkMacSystemFont" font-size="14.00" fill="blue">put</text>
</g>
<!-- backend_riak&#45;&gt;pool_conn -->
<g id="edge28" class="edge">
<title>backend_riak&#45;&gt;pool_conn</title>
<path fill="none" stroke="red" d="M994.52,-329.81C1002.85,-319.15 1010.61,-306.84 1015,-294 1022.97,-270.68 1013,-245.98 999.46,-225.72"/>
<polygon fill="red" stroke="red" points="1002.13,-223.44 993.48,-217.32 996.43,-227.5 1002.13,-223.44"/>
<text text-anchor="middle" x="1035.5" y="-282.8" font-family="BlinkMacSystemFont" font-size="14.00" fill="red">delete</text>
</g>
<!-- reliable -->
<g id="node13" class="node">
<title>reliable</title>
<polygon fill="#e5e5e5" stroke="black" points="1377,-1038 1161,-1038 1161,-966 1377,-966 1377,-1038"/>
<text text-anchor="middle" x="1269" y="-1005.8" font-family="BlinkMacSystemFont" font-size="14.00">&lt;&lt;module&gt;&gt;</text>
<text text-anchor="middle" x="1269" y="-990.8" font-family="BlinkMacSystemFont" font-size="14.00">reliable</text>
</g>
<!-- reliable&#45;&gt;store -->
<g id="edge15" class="edge">
<title>reliable&#45;&gt;store</title>
<path fill="none" stroke="blue" d="M1270,-965.72C1269.53,-913.27 1260.89,-814.63 1207,-756 1183.76,-730.72 1151.09,-714.44 1118.61,-703.95"/>
<polygon fill="blue" stroke="blue" points="1119.59,-700.59 1109,-701.02 1117.54,-707.29 1119.59,-700.59"/>
<text text-anchor="middle" x="1288.5" y="-839.3" font-family="BlinkMacSystemFont" font-size="14.00" fill="blue">schedule</text>
</g>
<!-- reliable&#45;&gt;store2 -->
<g id="edge21" class="edge">
<title>reliable&#45;&gt;store2</title>
<path fill="none" stroke="blue" d="M1235.68,-965.73C1182.75,-911.9 1073.85,-809.84 961,-756 942.41,-747.13 842.51,-725.59 759.21,-708.54"/>
<polygon fill="blue" stroke="blue" points="759.9,-705.11 749.4,-706.54 758.5,-711.97 759.9,-705.11"/>
<text text-anchor="middle" x="1168.5" y="-839.3" font-family="BlinkMacSystemFont" font-size="14.00" fill="blue">schedule</text>
</g>
</g>
</svg>
